<svg width="6" height="4" viewBox="0 0 6 4" fill="none" xmlns="http://www.w3.org/2000/svg">
<path fill="#8E9297" d="M2.99855 3.99999C2.91919 4.0005 2.84051 3.98368 2.76704 3.95051C2.69356 3.91735 2.62673 3.86847 2.57038 3.8067L0.177353 1.14362C0.0637959 1.01811 0 0.847888 0 0.670396C0 0.492904 0.0637959 0.322681 0.177353 0.197176C0.290911 0.0716699 0.444928 0.00116183 0.605522 0.00116183C0.766116 0.00116183 0.920133 0.0716699 1.03369 0.197176L2.99855 2.39371L5.00469 0.160267C5.12005 0.0510752 5.26845 -0.00598215 5.42022 0.000497066C5.572 0.00697628 5.71597 0.0765149 5.82337 0.195216C5.93077 0.313917 5.99369 0.473039 5.99955 0.640782C6.00541 0.808526 5.95379 0.972538 5.85499 1.10004L3.42069 3.8067C3.30836 3.92984 3.15676 3.99925 2.99855 3.99999Z"/>
</svg>

